<?xml version="1.0" encoding="UTF-8" standalone="no"?>
<!-- Created with Inkscape (http://www.inkscape.org/) -->

<svg
   version="1.1"
   id="svg874"
   xml:space="preserve"
   width="104"
   height="104"
   viewBox="0 0 104 104"
   xmlns="http://www.w3.org/2000/svg"
   xmlns:svg="http://www.w3.org/2000/svg"><defs
     id="defs878"><clipPath
       clipPathUnits="userSpaceOnUse"
       id="clipPath888"><path
         d="M 0,78 H 78 V 0 H 0 Z"
         id="path886" /></clipPath><clipPath
       clipPathUnits="userSpaceOnUse"
       id="clipPath896"><path
         d="M 0,77.997 H 78 V -0.00300598 H 0 Z"
         id="path894" /></clipPath><clipPath
       clipPathUnits="userSpaceOnUse"
       id="clipPath900"><path
         d="M 0,77.997 H 78 V -0.00300598 H 0 Z"
         id="path898" /></clipPath><clipPath
       clipPathUnits="userSpaceOnUse"
       id="clipPath904"><path
         d="M 15.4826,65.5148 H 39.1547 V 51.3115 H 15.4826 Z"
         id="path902" /></clipPath><clipPath
       clipPathUnits="userSpaceOnUse"
       id="clipPath908"><path
         d="M 15.4827,52.5948 H 61.5152 V 25.4335 H 15.4827 Z"
         id="path906" /></clipPath><clipPath
       clipPathUnits="userSpaceOnUse"
       id="clipPath912"><path
         d="M 37.8734,65.5147 H 61.515 V 51.3115 H 37.8734 Z"
         id="path910" /></clipPath><clipPath
       clipPathUnits="userSpaceOnUse"
       id="clipPath916"><path
         d="M 15.4827,52.594 H 61.5173 V 25.4335 H 15.4827 Z"
         id="path914" /></clipPath><clipPath
       clipPathUnits="userSpaceOnUse"
       id="clipPath920"><path
         d="M 15.4827,26.716 H 39.1546 V 12.4799 H 15.4827 Z"
         id="path918" /></clipPath><clipPath
       clipPathUnits="userSpaceOnUse"
       id="clipPath924"><path
         d="M 37.8731,26.7166 H 61.5173 V 12.4799 H 37.8731 Z"
         id="path922" /></clipPath><clipPath
       clipPathUnits="userSpaceOnUse"
       id="clipPath928"><path
         d="m 15.4829,52.5937 h 1.281 V 25.4335 h -1.281 z"
         id="path926" /></clipPath><clipPath
       clipPathUnits="userSpaceOnUse"
       id="clipPath932"><path
         d="m 60.234,52.5937 h 1.2831 V 25.4335 H 60.234 Z"
         id="path930" /></clipPath><clipPath
       clipPathUnits="userSpaceOnUse"
       id="clipPath936"><path
         d="m 37.8734,65.514 h 1.2809 V 12.5539 h -1.2809 z"
         id="path934" /></clipPath></defs><g
     id="g880"
     transform="matrix(1.3333333,0,0,-1.3333333,0,104)"><g
       id="g882"><g
         id="g884"
         clip-path="url(#clipPath888)"><g
           id="g890"><g
             id="g892" /><g
             id="g1132"><g
               clip-path="url(#clipPath896)"
               opacity="0.600006"
               id="g1130"><g
                 id="g948"><g
                   id="g938" /><g
                   id="g946"><g
                     clip-path="url(#clipPath900)"
                     opacity="0.5"
                     id="g944"><g
                       transform="translate(69,-0.0029)"
                       id="g942"><path
                         d="m 0,0 h -60 c -4.95,0 -9,4.05 -9,9 v 60 c 0,4.95 4.05,9 9,9 H 0 c 4.95,0 9,-4.05 9,-9 V 9 C 9,4.05 4.95,0 0,0"
                         style="fill:#ffffff;fill-opacity:1;fill-rule:nonzero;stroke:none"
                         id="path940" /></g></g></g></g><g
                 transform="translate(45.0264,59.9775)"
                 id="g952"><path
                   d="m 0,0 c -0.19,0 -0.384,0.049 -0.562,0.152 l -5.952,3.445 -5.973,-3.446 c -0.538,-0.31 -1.224,-0.126 -1.534,0.412 -0.31,0.538 -0.125,1.226 0.413,1.536 l 6.535,3.77 C -6.726,6.07 -6.299,6.07 -5.95,5.868 L 0.563,2.098 C 1.101,1.787 1.284,1.1 0.974,0.562 0.765,0.202 0.388,0 0,0"
                   style="fill:#000000;fill-opacity:1;fill-rule:nonzero;stroke:none"
                   id="path950" /></g><g
                 transform="translate(38.5137,30.3501)"
                 id="g956"><path
                   d="m 0,0 c -0.62,0 -1.123,0.503 -1.123,1.124 v 7.54 c 0,0.621 0.503,1.124 1.123,1.124 0.62,0 1.123,-0.503 1.123,-1.124 V 1.124 C 1.123,0.503 0.62,0 0,0"
                   style="fill:#000000;fill-opacity:1;fill-rule:nonzero;stroke:none"
                   id="path954" /></g><g
                 transform="translate(16.123,43.292)"
                 id="g960"><path
                   d="m 0,0 c -0.619,0 -1.122,0.503 -1.122,1.124 v 7.537 c 0,0.621 0.503,1.124 1.122,1.124 0.62,0 1.123,-0.503 1.123,-1.124 V 1.124 C 1.123,0.503 0.62,0 0,0"
                   style="fill:#000000;fill-opacity:1;fill-rule:nonzero;stroke:none"
                   id="path958" /></g><g
                 transform="translate(60.876,43.292)"
                 id="g964"><path
                   d="m 0,0 c -0.62,0 -1.123,0.503 -1.123,1.124 l -0.001,7.537 c 0,0.62 0.503,1.124 1.123,1.124 0.619,0 1.122,-0.503 1.122,-1.124 L 1.122,1.124 C 1.122,0.503 0.619,0 0,0"
                   style="fill:#000000;fill-opacity:1;fill-rule:nonzero;stroke:none"
                   id="path962" /></g><g
                 transform="translate(60.877,24.9507)"
                 id="g968"><path
                   d="m 0,0 c -0.62,0 -1.123,0.502 -1.123,1.124 l -0.006,7.537 c -10e-4,0.62 0.502,1.124 1.122,1.124 h 0.001 c 0.62,0 1.123,-0.502 1.123,-1.123 L 1.122,1.125 C 1.124,0.504 0.62,0 0.001,0 Z"
                   style="fill:#000000;fill-opacity:1;fill-rule:nonzero;stroke:none"
                   id="path966" /></g><g
                 transform="translate(16.123,24.9507)"
                 id="g972"><path
                   d="m 0,0 c -0.619,0 -1.122,0.503 -1.122,1.124 v 7.537 c 0,0.621 0.503,1.124 1.122,1.124 0.62,0 1.123,-0.503 1.123,-1.124 V 1.124 C 1.123,0.503 0.62,0 0,0"
                   style="fill:#000000;fill-opacity:1;fill-rule:nonzero;stroke:none"
                   id="path970" /></g><g
                 transform="translate(38.5137,55.5313)"
                 id="g976"><path
                   d="m 0,0 c -0.62,0 -1.123,0.503 -1.123,1.124 v 8.218 c 0,0.621 0.503,1.124 1.123,1.124 0.62,0 1.123,-0.503 1.123,-1.124 V 1.124 C 1.123,0.503 0.62,0 0,0"
                   style="fill:#000000;fill-opacity:1;fill-rule:nonzero;stroke:none"
                   id="path974" /></g><g
                 transform="translate(38.5137,11.9971)"
                 id="g980"><path
                   d="m 0,0 c -0.62,0 -1.123,0.503 -1.123,1.124 v 7.537 c 0,0.621 0.503,1.124 1.123,1.124 0.62,0 1.123,-0.503 1.123,-1.124 V 1.124 C 1.123,0.503 0.62,0 0,0"
                   style="fill:#000000;fill-opacity:1;fill-rule:nonzero;stroke:none"
                   id="path978" /></g><g
                 transform="translate(38.5137,11.9971)"
                 id="g984"><path
                   d="M 0,0 C -0.193,0 -0.388,0.05 -0.562,0.15 L -7.12,3.944 c -0.537,0.311 -0.721,0.999 -0.409,1.536 0.309,0.538 0.996,0.721 1.534,0.411 L 0,2.422 5.914,5.849 C 6.45,6.16 7.138,5.976 7.449,5.439 7.76,4.902 7.576,4.214 7.039,3.903 L 0.562,0.151 C 0.39,0.05 0.194,0 0,0"
                   style="fill:#000000;fill-opacity:1;fill-rule:nonzero;stroke:none"
                   id="path982" /></g><g
                 transform="translate(38.5137,37.8901)"
                 id="g988"><path
                   d="m 0,0 c -0.193,0 -0.387,0.05 -0.562,0.15 l -6.535,3.772 c -0.537,0.311 -0.721,0.998 -0.411,1.536 0.312,0.539 0.996,0.72 1.534,0.413 L -0.001,2.422 5.951,5.869 C 6.491,6.18 7.175,5.997 7.486,5.459 7.797,4.922 7.613,4.234 7.076,3.923 L 0.562,0.151 C 0.39,0.05 0.194,0 0,0"
                   style="fill:#000000;fill-opacity:1;fill-rule:nonzero;stroke:none"
                   id="path986" /></g><g
                 transform="translate(54.3545,47.0576)"
                 id="g992"><path
                   d="M 0,0 C -0.388,0 -0.766,0.201 -0.973,0.562 -1.284,1.1 -1.101,1.787 -0.562,2.098 L 5.959,5.869 C 6.495,6.178 7.183,5.995 7.492,5.458 7.803,4.919 7.619,4.232 7.081,3.921 L 0.561,0.151 C 0.384,0.049 0.191,0 0,0"
                   style="fill:#000000;fill-opacity:1;fill-rule:nonzero;stroke:none"
                   id="path990" /></g><g
                 transform="translate(60.873,50.8281)"
                 id="g996"><path
                   d="m 0,0 c -0.19,0 -0.384,0.049 -0.56,0.151 l -6.531,3.774 c -0.537,0.31 -0.721,0.997 -0.412,1.535 0.312,0.538 1,0.722 1.535,0.412 L 0.562,2.098 C 1.1,1.788 1.284,1.101 0.975,0.562 0.767,0.202 0.389,0 0,0"
                   style="fill:#000000;fill-opacity:1;fill-rule:nonzero;stroke:none"
                   id="path994" /></g><g
                 transform="translate(22.6475,47.0576)"
                 id="g1000"><path
                   d="m 0,0 c -0.191,0 -0.384,0.049 -0.561,0.151 l -6.525,3.77 c -0.536,0.311 -0.721,0.998 -0.411,1.536 0.31,0.538 1,0.721 1.534,0.412 L 0.562,2.098 C 1.1,1.788 1.284,1.1 0.974,0.562 0.766,0.202 0.388,0 0,0"
                   style="fill:#000000;fill-opacity:1;fill-rule:nonzero;stroke:none"
                   id="path998" /></g><g
                 transform="translate(16.124,50.8281)"
                 id="g1004"><path
                   d="m 0,0 c -0.388,0 -0.766,0.202 -0.974,0.563 -0.309,0.538 -0.125,1.225 0.413,1.536 L 5.958,5.86 C 6.493,6.17 7.181,5.986 7.491,5.447 7.801,4.91 7.616,4.222 7.079,3.912 L 0.56,0.15 C 0.383,0.049 0.19,0 0,0"
                   style="fill:#000000;fill-opacity:1;fill-rule:nonzero;stroke:none"
                   id="path1002" /></g><g
                 transform="translate(54.3418,21.1797)"
                 id="g1008"><path
                   d="M 0,0 C -0.389,0 -0.767,0.202 -0.975,0.563 -1.284,1.101 -1.1,1.789 -0.562,2.098 L 5.975,5.869 C 6.511,6.18 7.197,5.995 7.508,5.457 7.817,4.918 7.633,4.231 7.095,3.921 L 0.559,0.15 C 0.383,0.049 0.189,0 0,0"
                   style="fill:#000000;fill-opacity:1;fill-rule:nonzero;stroke:none"
                   id="path1006" /></g><g
                 transform="translate(60.876,24.9502)"
                 id="g1012"><path
                   d="m 0,0 c -0.191,0 -0.385,0.049 -0.561,0.151 l -6.525,3.771 c -0.537,0.31 -0.722,0.998 -0.411,1.536 0.31,0.538 1,0.72 1.534,0.411 L 0.562,2.098 C 1.099,1.788 1.283,1.1 0.974,0.562 0.766,0.202 0.388,0 0,0"
                   style="fill:#000000;fill-opacity:1;fill-rule:nonzero;stroke:none"
                   id="path1010" /></g><g
                 transform="translate(22.6475,21.1753)"
                 id="g1016"><path
                   d="m 0,0 c -0.191,0 -0.384,0.049 -0.562,0.151 l -6.525,3.775 c -0.536,0.311 -0.72,0.998 -0.409,1.536 0.309,0.537 0.997,0.72 1.534,0.411 L 0.563,2.098 C 1.101,1.787 1.284,1.1 0.973,0.562 0.766,0.202 0.388,0 0,0"
                   style="fill:#000000;fill-opacity:1;fill-rule:nonzero;stroke:none"
                   id="path1014" /></g><g
                 transform="translate(16.124,24.9502)"
                 id="g1020"><path
                   d="m 0,0 c -0.388,0 -0.765,0.201 -0.973,0.562 -0.31,0.537 -0.127,1.225 0.41,1.535 L 5.95,5.869 C 6.49,6.18 7.174,5.996 7.485,5.458 7.796,4.921 7.612,4.233 7.075,3.922 L 0.562,0.151 C 0.385,0.049 0.191,0 0,0"
                   style="fill:#000000;fill-opacity:1;fill-rule:nonzero;stroke:none"
                   id="path1018" /></g><g
                 id="g1032"><g
                   id="g1022" /><g
                   id="g1030"><g
                     clip-path="url(#clipPath904)"
                     opacity="0.199997"
                     id="g1028"><g
                       transform="translate(16.124,51.3115)"
                       id="g1026"><path
                         d="m 0,0 c -0.222,0 -0.437,0.115 -0.556,0.321 -0.176,0.307 -0.071,0.699 0.235,0.875 l 22.39,12.921 c 0.311,0.178 0.699,0.071 0.876,-0.236 0.177,-0.306 0.071,-0.698 -0.235,-0.875 L 0.319,0.086 C 0.218,0.028 0.108,0 0,0"
                         style="fill:#000000;fill-opacity:1;fill-rule:nonzero;stroke:none"
                         id="path1024" /></g></g></g></g><g
                 id="g1044"><g
                   id="g1034" /><g
                   id="g1042"><g
                     clip-path="url(#clipPath908)"
                     opacity="0.199997"
                     id="g1040"><g
                       transform="translate(16.124,25.4336)"
                       id="g1038"><path
                         d="m 0,0 c -0.222,0 -0.437,0.114 -0.555,0.32 -0.177,0.307 -0.073,0.699 0.234,0.876 l 44.752,25.878 c 0.306,0.179 0.698,0.073 0.874,-0.235 0.177,-0.306 0.073,-0.698 -0.235,-0.875 L 0.319,0.086 C 0.219,0.028 0.108,0 0,0"
                         style="fill:#000000;fill-opacity:1;fill-rule:nonzero;stroke:none"
                         id="path1036" /></g></g></g></g><g
                 id="g1056"><g
                   id="g1046" /><g
                   id="g1054"><g
                     clip-path="url(#clipPath912)"
                     opacity="0.199997"
                     id="g1052"><g
                       transform="translate(60.873,51.3115)"
                       id="g1050"><path
                         d="m 0,0 c -0.107,0 -0.218,0.028 -0.318,0.086 l -22.362,12.92 c -0.305,0.177 -0.411,0.569 -0.233,0.876 0.175,0.306 0.565,0.413 0.874,0.235 L 0.321,1.196 C 0.628,1.019 0.733,0.627 0.556,0.32 0.437,0.115 0.222,0 0,0"
                         style="fill:#000000;fill-opacity:1;fill-rule:nonzero;stroke:none"
                         id="path1048" /></g></g></g></g><g
                 id="g1068"><g
                   id="g1058" /><g
                   id="g1066"><g
                     clip-path="url(#clipPath916)"
                     opacity="0.199997"
                     id="g1064"><g
                       transform="translate(60.876,25.4336)"
                       id="g1062"><path
                         d="m 0,0 c -0.109,0 -0.219,0.028 -0.319,0.086 l -44.754,25.878 c -0.307,0.177 -0.411,0.569 -0.234,0.875 0.176,0.307 0.568,0.412 0.874,0.235 L 0.321,1.196 C 0.628,1.019 0.732,0.627 0.555,0.32 0.437,0.115 0.222,0 0,0"
                         style="fill:#000000;fill-opacity:1;fill-rule:nonzero;stroke:none"
                         id="path1060" /></g></g></g></g><g
                 id="g1080"><g
                   id="g1070" /><g
                   id="g1078"><g
                     clip-path="url(#clipPath920)"
                     opacity="0.199997"
                     id="g1076"><g
                       transform="translate(38.5127,12.48)"
                       id="g1074"><path
                         d="M 0,0 C -0.108,0 -0.219,0.028 -0.319,0.086 L -22.71,13.04 c -0.307,0.177 -0.411,0.569 -0.233,0.876 0.175,0.306 0.567,0.411 0.874,0.234 L 0.321,1.196 C 0.628,1.019 0.733,0.626 0.556,0.32 0.437,0.114 0.222,0 0,0"
                         style="fill:#000000;fill-opacity:1;fill-rule:nonzero;stroke:none"
                         id="path1072" /></g></g></g></g><g
                 id="g1092"><g
                   id="g1082" /><g
                   id="g1090"><g
                     clip-path="url(#clipPath924)"
                     opacity="0.199997"
                     id="g1088"><g
                       transform="translate(38.5146,12.48)"
                       id="g1086"><path
                         d="m 0,0 c -0.222,0 -0.436,0.114 -0.555,0.32 -0.177,0.306 -0.073,0.699 0.233,0.876 l 22.363,12.953 c 0.308,0.18 0.697,0.073 0.875,-0.233 0.178,-0.307 0.073,-0.699 -0.232,-0.876 L 0.32,0.086 C 0.219,0.028 0.109,0 0,0"
                         style="fill:#000000;fill-opacity:1;fill-rule:nonzero;stroke:none"
                         id="path1084" /></g></g></g></g><g
                 id="g1104"><g
                   id="g1094" /><g
                   id="g1102"><g
                     clip-path="url(#clipPath928)"
                     opacity="0.199997"
                     id="g1100"><g
                       transform="translate(16.123,25.4336)"
                       id="g1098"><path
                         d="m 0,0 c -0.354,0 -0.64,0.287 -0.64,0.641 v 25.878 c 0,0.354 0.286,0.641 0.64,0.641 0.354,0 0.641,-0.287 0.641,-0.641 V 0.641 C 0.641,0.287 0.354,0 0,0"
                         style="fill:#000000;fill-opacity:1;fill-rule:nonzero;stroke:none"
                         id="path1096" /></g></g></g></g><g
                 id="g1116"><g
                   id="g1106" /><g
                   id="g1114"><g
                     clip-path="url(#clipPath932)"
                     opacity="0.199997"
                     id="g1112"><g
                       transform="translate(60.877,25.4336)"
                       id="g1110"><path
                         d="m 0,0 c -0.354,0 -0.641,0.287 -0.641,0.641 l -0.002,25.878 c 0,0.354 0.287,0.641 0.641,0.641 0.354,0 0.64,-0.287 0.64,-0.641 L 0.64,0.641 C 0.64,0.287 0.354,0 0,0"
                         style="fill:#000000;fill-opacity:1;fill-rule:nonzero;stroke:none"
                         id="path1108" /></g></g></g></g><g
                 id="g1128"><g
                   id="g1118" /><g
                   id="g1126"><g
                     clip-path="url(#clipPath936)"
                     opacity="0.199997"
                     id="g1124"><g
                       transform="translate(38.5137,12.5537)"
                       id="g1122"><path
                         d="m 0,0 c -0.354,0 -0.641,0.287 -0.641,0.641 v 51.678 c 0,0.354 0.287,0.641 0.641,0.641 0.354,0 0.641,-0.287 0.641,-0.641 V 0.641 C 0.641,0.287 0.354,0 0,0"
                         style="fill:#000000;fill-opacity:1;fill-rule:nonzero;stroke:none"
                         id="path1120" /></g></g></g></g></g></g></g></g></g></g></svg>
